<svg version="1.2" xmlns="http://www.w3.org/2000/svg" viewBox="0 0 375 109" width="375" height="109"><defs><clipPath clipPathUnits="userSpaceOnUse" id="cp1"><path d="m220 40h33.67v43.05h-33.67z"/></clipPath><clipPath clipPathUnits="userSpaceOnUse" id="cp2"><path d="m199 5.8h34v44.2h-34z"/></clipPath></defs><style>.a{fill:#fff}.b{fill:#d45b1f}.c{fill:#ec6421}.d{fill:#ff7335}.e{fill:#da4e09}</style><path class="a" d="m-37.5-175.5h450v450h-450z"/><path class="b" d="m-37.5-175.5h450v450h-450z"/><path class="a" d="m-37.5-175.5h450v450h-450z"/><path class="c" d="m66 43.9q3.3 2 5.1 5.1 1.7 3.1 1.7 7.1 0 3.8-1.8 7.1-1.8 3.3-5.2 5.9-3 2.3-6.8 3.5-3.9 1.2-8.2 1.3-4.3 0-8.2-1.2-3.9-1.2-6.9-3.6-4.5-3.4-6.2-8.2l11.1-5.2q0 0.8 0.6 2 0.6 1.2 1.8 2.3 1.1 1.1 3 1.9 1.9 0.8 4.7 0.8 2.3 0 4-0.5 1.7-0.6 2.8-1.4 1.2-0.9 1.8-1.9 0.6-1.1 0.6-2.2 0-1.3-0.9-2.4-0.8-1.1-2.5-1.8-3.2-1.1-6.8-1.8-3.5-0.8-6.8-1.9-3.4-1.2-6.2-3.1-2.9-1.9-4.6-5.3-1.5-3-1.5-6.5 0-3.8 1.8-7.4 1.8-3.5 4.9-6 2.9-2.3 6.6-3.5 3.7-1.3 7.7-1.3 4.1 0 7.8 1.2 3.7 1.2 6.6 3.5 2.9 2.2 4.5 5l-9 6.2q-1.7-2.3-4.2-3.7-2.5-1.3-5.6-1.4-4.3 0.1-6.6 2-2.4 1.9-2.4 5 0 1.4 1.3 2.5 1.3 1.1 3.4 2 2.1 0.9 4.8 1.5 2.6 0.7 5.2 1.4 2.6 0.7 4.8 1.4 2.4 0.7 3.8 1.6z"/><path class="c" d="m116.5 16.5h12v36q0 4.3-1.7 8.1-1.8 3.9-4.8 6.9-3 2.9-7 4.7-4 1.7-8.6 1.7-4.6 0-8.6-1.7-4.1-1.8-7.1-4.7-2.9-3-4.7-6.9-1.7-3.8-1.7-8.1v-36h12v33.6q0 2.4 0.8 4.5 0.7 2.2 2.1 3.8 1.4 1.6 3.2 2.6 1.9 0.9 4 0.9 2.1 0 3.9-0.9 1.9-1 3.3-2.6 1.3-1.6 2.1-3.8 0.8-2.1 0.8-4.5z"/><path class="c" d="m179.6 16.5h12v56.4h-11.4l-27.1-36.8v36.8h-12v-56.4h11.3l27.2 37.1z"/><path class="c" d="m259.6 16.5h35.2v11h-23.2v10.2h20.4v10.9h-20.4v13.4h23.2v10.9h-35.2z"/><path class="c" d="m306 16.5h40.7v11h-14.3v45.4h-12v-45.4h-14.4z"/><g clip-path="url(#cp1)"><path class="d" d="m232.1 83.3h-11.4v-9.1h11.4c7 0 12.6-5.6 12.6-12.5 0-7-5.6-12.6-12.6-12.6v-9.1c12 0 21.7 9.7 21.7 21.7 0 11.9-9.7 21.6-21.7 21.6z"/></g><g clip-path="url(#cp2)"><path class="d" d="m220.7 49.1c-11.9 0-21.6-9.7-21.6-21.6 0-12 9.7-21.7 21.6-21.7h11.3v9.1h-11.3c-6.9 0-12.5 5.6-12.5 12.6 0 6.9 5.6 12.5 12.5 12.5z"/></g><path class="e" d="m81.3 92.1q0.6 0 1.1 0.1 0.5 0 0.9 0.2 0.4 0.1 0.7 0.2 0.3 0.1 0.5 0.2 0.1 0 0.3 0.1 0.1 0.1 0.2 0.1 0.1 0 0.1-0.1 0.1 0 0.2-0.1l0.2 0.1-1.1 1.8-0.2-0.1q0.1-0.1 0.1-0.1 0-0.1 0-0.1 0-0.2-0.2-0.4-0.3-0.2-0.7-0.4-0.4-0.2-1-0.3-0.6-0.1-1.2-0.1-0.7 0-1.4 0.2-0.6 0.2-1.2 0.6-0.5 0.4-0.7 1-0.3 0.6-0.3 1.4 0 0.7 0.3 1.3 0.3 0.6 0.9 1.1 0.5 0.4 1.2 0.7 0.7 0.2 1.5 0.2 0.7 0 1.3-0.2 0.6-0.3 0.9-0.5 0.3-0.2 0.5-0.4 0.2-0.2 0.2-0.4 0-0.1 0-0.1 0-0.1 0-0.1l0.2-0.1 1.2 1.5-0.2 0.1q-0.1-0.1-0.3-0.1-0.1 0-0.2 0.1-0.1 0.1-0.3 0.3-0.7 0.5-1.6 0.7-0.8 0.3-1.8 0.3-1.2 0-2.1-0.3-0.9-0.4-1.6-1-0.7-0.6-1.1-1.4-0.3-0.9-0.3-1.9 0-0.8 0.3-1.6 0.4-0.7 1-1.3 0.7-0.6 1.6-0.9 1-0.3 2.1-0.3z"/><path fill-rule="evenodd" class="e" d="m91.9 93.5q1 0 1.7 0.3 0.8 0.3 1.3 0.8 0.5 0.4 0.8 1.1 0.3 0.7 0.3 1.4 0 0.8-0.3 1.5-0.3 0.6-0.8 1.1-0.6 0.5-1.3 0.8-0.8 0.3-1.7 0.3-0.9 0-1.6-0.3-0.8-0.3-1.3-0.8-0.6-0.5-0.9-1.1-0.3-0.7-0.3-1.5 0-0.7 0.3-1.4 0.3-0.7 0.9-1.2 0.5-0.5 1.3-0.7 0.7-0.3 1.6-0.3zm-3 3.6q0 0.6 0.2 1.1 0.2 0.5 0.6 0.9 0.4 0.4 1 0.6 0.6 0.2 1.2 0.2 0.7 0 1.2-0.2 0.6-0.2 1-0.6 0.4-0.4 0.6-0.9 0.2-0.5 0.2-1.1 0-0.5-0.2-1-0.2-0.5-0.6-0.9-0.4-0.4-0.9-0.6-0.6-0.2-1.3-0.2-0.6 0-1.2 0.2-0.6 0.2-1 0.6-0.4 0.3-0.6 0.8-0.2 0.5-0.2 1.1z"/><path class="e" d="m100.7 93.6v0.2q-0.2 0-0.3 0-0.1 0.1-0.1 0.1 0 0.1 0 0.1 0.1 0.1 0.3 0.3l4.2 4.9v-5q0-0.2 0-0.3-0.1-0.1-0.4-0.1v-0.2h1.8v0.2q-0.3 0-0.4 0.1-0.1 0 0 0.3v5.8q-0.1 0.3 0 0.4 0.1 0.1 0.4 0.1v0.2h-2.2v-0.2q0.3 0 0.4 0 0.1-0.1 0.1-0.1 0-0.1-0.1-0.1 0-0.1-0.1-0.2l-4.6-5.3v5.2q0 0.3 0.1 0.4 0.1 0.1 0.3 0.1v0.2h-1.8v-0.2q0.3 0 0.4-0.1 0.1-0.1 0.1-0.3v-5.9q0-0.2-0.1-0.3-0.1-0.1-0.4-0.1v-0.2z"/><path class="e" d="m116 93.2v1.7h-0.2q0-0.2-0.1-0.3-0.1-0.1-0.3-0.1h-4.8v2.1h3.2q0.2 0 0.3 0 0.1-0.1 0.1-0.3h0.2v1.6h-0.2q0-0.3-0.4-0.3h-3.2v2.5q0 0.2 0.1 0.3 0.1 0.1 0.4 0.1v0.2h-1.9v-0.2q0.2 0 0.3-0.1 0.1-0.1 0.1-0.3v-5.9q0-0.3-0.1-0.3-0.1-0.1-0.3-0.1v-0.2h6.2q0.2 0 0.3-0.1 0.1-0.1 0.1-0.3z"/><path class="e" d="m120.2 93.6v0.2q-0.2 0-0.3 0.1-0.1 0-0.1 0.3v5.9q0 0.2 0.1 0.3 0.1 0.1 0.3 0.1v0.2h-1.8v-0.2q0.3 0 0.4-0.1 0-0.1 0-0.3v-5.9q0-0.3 0-0.3-0.1-0.1-0.4-0.1v-0.2z"/><path fill-rule="evenodd" class="e" d="m127.7 93.6v0.2q-0.1 0-0.2 0-0.1 0.1-0.1 0.2 0 0 0 0.1 0 0.1 0.1 0.2l2.7 5.8q0.1 0.2 0.2 0.3 0.1 0.1 0.3 0.1v0.2h-2v-0.2q0.3 0 0.4 0 0.1-0.1 0.1-0.2 0-0.1-0.1-0.2 0-0.1-0.1-0.2l-0.6-1.3h-3.9l-0.6 1.2q-0.1 0.2-0.1 0.3-0.1 0.1-0.1 0.2 0 0.1 0.1 0.1 0.1 0.1 0.4 0.1v0.2h-1.8v-0.2q0.2 0 0.3-0.1 0.1-0.2 0.3-0.6l2.3-5.3q0.1-0.2 0.2-0.3 0-0.1 0-0.2 0-0.1-0.1-0.2-0.1 0-0.3-0.1v-0.1zm-2.9 4.1h3.2l-1.6-3.4z"/><path class="e" d="m134.9 93.6v0.2q-0.3 0-0.4 0 0 0.1 0 0.1 0 0.1 0 0.1 0.1 0.1 0.2 0.3l4.3 4.9v-5q0-0.2-0.1-0.3-0.1-0.1-0.3-0.1v-0.2h1.8v0.2q-0.3 0-0.4 0.1-0.1 0-0.1 0.3v5.8q0 0.3 0.1 0.4 0.1 0.1 0.4 0.1v0.2h-2.2v-0.2q0.2 0 0.3 0 0.1-0.1 0.1-0.1 0-0.1 0-0.1 0-0.1-0.2-0.2l-4.5-5.3v5.2q0 0.3 0 0.4 0.1 0.1 0.4 0.1v0.2h-1.8v-0.2q0.3 0 0.4-0.1 0.1-0.1 0.1-0.3v-5.9q0-0.2-0.1-0.3-0.1-0.1-0.4-0.1v-0.2z"/><path class="e" d="m146.6 93.5q0.8 0 1.2 0.1 0.5 0.1 0.8 0.2 0.4 0.1 0.6 0.2 0.2 0.1 0.3 0.1 0.1 0 0.1 0 0.1 0 0.2-0.2l0.2 0.1-0.8 1.7-0.2-0.1q0-0.1 0-0.1 0-0.1 0-0.2 0-0.1-0.2-0.2-0.2-0.2-0.6-0.4-0.3-0.1-0.7-0.2-0.5-0.1-0.9-0.1-0.7 0-1.2 0.2-0.6 0.2-1 0.6-0.4 0.4-0.6 0.9-0.2 0.5-0.2 1 0 0.6 0.2 1.1 0.2 0.5 0.6 0.8 0.4 0.4 0.9 0.6 0.5 0.2 1.2 0.2 0.6 0 1.1-0.1 0.5-0.2 0.8-0.3 0.3-0.2 0.5-0.4 0.2-0.2 0.2-0.3 0-0.2-0.1-0.3l0.2-0.1 1.1 1.5-0.1 0.1q-0.2-0.1-0.2-0.1-0.1-0.1-0.1-0.1-0.2 0-0.6 0.3-0.7 0.4-1.3 0.6-0.6 0.1-1.2 0.2l-0.5 0.7q0.2 0 0.3-0.1 0.1 0 0.3 0 0.5 0 0.9 0.4 0.3 0.3 0.3 0.8 0 0.4-0.1 0.6-0.2 0.3-0.5 0.4-0.2 0.2-0.6 0.2-0.3 0.1-0.6 0.1-0.4 0-0.7-0.1-0.4-0.1-0.7-0.2l0.2-0.5q0.2 0.1 0.5 0.2 0.2 0 0.4 0 0.5 0 0.8-0.1 0.4-0.2 0.4-0.6 0-0.3-0.2-0.5-0.3-0.1-0.6-0.1-0.2 0-0.4 0-0.2 0-0.3 0.1l-0.3-0.2 0.8-1.1q-0.8-0.1-1.5-0.3-0.6-0.3-1.1-0.8-0.5-0.4-0.8-1.1-0.2-0.6-0.2-1.5 0-0.8 0.3-1.5 0.3-0.7 0.8-1.1 0.5-0.5 1.3-0.8 0.7-0.2 1.6-0.2z"/><path fill-rule="evenodd" class="e" d="m156.5 93.6v0.2q-0.1 0-0.2 0-0.2 0.1-0.2 0.2 0 0 0.1 0.1 0 0.1 0.1 0.2l2.7 5.8q0.1 0.2 0.2 0.3 0.1 0.1 0.3 0.1v0.2h-2v-0.2q0.3 0 0.4 0 0.1-0.1 0.1-0.2 0-0.1-0.1-0.2 0-0.1-0.1-0.2l-0.6-1.3h-3.9l-0.6 1.2q-0.1 0.2-0.1 0.3-0.1 0.1-0.1 0.2 0 0.1 0.1 0.1 0.1 0.1 0.4 0.1v0.2h-1.9v-0.2q0.3 0 0.4-0.1 0.1-0.2 0.3-0.6l2.3-5.3q0.1-0.2 0.2-0.3 0-0.1 0-0.2 0-0.1-0.1-0.2-0.1 0-0.3-0.1v-0.1zm-2.9 4.1h3.2l-1.6-3.4z"/><path class="e" d="m173.4 93.2v1.7h-0.2q0-0.2-0.1-0.3-0.1-0.1-0.3-0.1h-5v2.1h3.5q0.2 0 0.3-0.1 0.1-0.1 0.1-0.3h0.2v1.7h-0.2q0-0.2-0.1-0.3-0.1-0.1-0.3-0.1h-3.5v2.3h5.2q0.2 0 0.3-0.1 0.1-0.1 0.1-0.3h0.2v1.7h-0.2q0-0.2-0.1-0.3-0.1-0.1-0.3-0.1h-6.7v-0.2q0.2 0 0.3-0.1 0.1-0.1 0.1-0.3v-5.9q0-0.3-0.1-0.3-0.1-0.1-0.3-0.1v-0.2h6.5q0.2 0 0.3-0.1 0.1-0.1 0.1-0.3z"/><path class="e" d="m178.4 93.6v0.2q-0.4 0-0.4 0.1 0 0.1 0.1 0.2l2.4 4.5 2.3-4.3q0.1-0.1 0.2-0.2 0-0.1 0-0.2 0 0-0.1-0.1-0.1 0-0.3 0v-0.2h2.2v0.2q-0.2 0-0.3 0.1 0 0 0 0.3v5.9q0 0.2 0 0.3 0.1 0.1 0.3 0.1v0.2h-1.8v-0.2q0.3 0 0.4-0.1 0.1-0.1 0.1-0.3v-5.1h-0.1l-2.9 5.4-2.9-5.4h-0.1v5.1q0 0.2 0.1 0.3 0.1 0.1 0.4 0.1v0.2h-1.8v-0.2q0.3 0 0.3-0.1 0.1-0.1 0.1-0.3v-5.9q0-0.2-0.1-0.3 0-0.1-0.3-0.1v-0.2z"/><path class="e" d="m196.1 93.5q0.8 0 1.2 0.1 0.5 0.1 0.8 0.2 0.4 0.1 0.6 0.2 0.2 0.1 0.3 0.1 0 0 0.1 0 0 0 0.1-0.2l0.2 0.1-0.8 1.7-0.2-0.1q0.1-0.1 0.1-0.1 0-0.1 0-0.2 0-0.1-0.2-0.2-0.2-0.2-0.6-0.4-0.3-0.1-0.8-0.2-0.4-0.1-0.8-0.1-0.7 0-1.3 0.2-0.5 0.2-0.9 0.6-0.4 0.4-0.6 0.9-0.2 0.5-0.2 1 0 0.6 0.2 1.1 0.2 0.5 0.6 0.8 0.3 0.4 0.9 0.6 0.5 0.2 1.1 0.2 0.7 0 1.1-0.1 0.5-0.2 0.9-0.3 0.3-0.2 0.5-0.4 0.2-0.2 0.2-0.3 0-0.2-0.1-0.3l0.2-0.1 1.1 1.5-0.2 0.1q-0.1-0.1-0.2-0.1 0-0.1-0.1-0.1-0.1 0-0.5 0.3-0.8 0.4-1.4 0.6-0.7 0.2-1.4 0.2-0.9 0-1.6-0.3-0.8-0.2-1.3-0.7-0.5-0.5-0.8-1.1-0.3-0.7-0.3-1.6 0-0.8 0.3-1.5 0.3-0.7 0.9-1.1 0.5-0.5 1.2-0.8 0.8-0.2 1.7-0.2z"/><path fill-rule="evenodd" class="e" d="m206 93.6v0.2q-0.2 0-0.3 0-0.1 0.1-0.1 0.2 0 0 0 0.1 0.1 0.1 0.1 0.2l2.8 5.8q0.1 0.2 0.2 0.3 0.1 0.1 0.3 0.1v0.2h-2v-0.2q0.2 0 0.3 0 0.1-0.1 0.1-0.2 0-0.1 0-0.2 0-0.1-0.1-0.2l-0.6-1.3h-4l-0.5 1.2q-0.1 0.2-0.2 0.3 0 0.1 0 0.2 0 0.1 0.1 0.1 0 0.1 0.3 0.1v0.2h-1.8v-0.2q0.3 0 0.4-0.1 0.1-0.2 0.2-0.6l2.4-5.3q0.1-0.2 0.1-0.3 0.1-0.1 0.1-0.2 0-0.1-0.1-0.2-0.1 0-0.3-0.1v-0.1zm-2.9 4.1h3.1l-1.6-3.4z"/><path fill-rule="evenodd" class="e" d="m214.7 93.6q1.7 0 2.6 0.9 1 0.9 1 2.6 0 1.7-0.9 2.7-1 0.9-2.7 0.9h-4v-0.2q0.3 0 0.4-0.1 0-0.1 0-0.3v-5.9q0-0.3 0-0.3-0.1-0.1-0.4-0.1v-0.2zm-0.1 6.2q1.2 0 2-0.7 0.7-0.7 0.7-2 0-1.2-0.7-1.9-0.8-0.7-2-0.7h-2.4v5.3z"/><path fill-rule="evenodd" class="e" d="m224.9 93.6v0.2q-0.2 0-0.3 0-0.1 0.1-0.1 0.2 0 0 0 0.1 0.1 0.1 0.1 0.2l2.8 5.8q0 0.2 0.2 0.3 0.1 0.1 0.3 0.1v0.2h-2.1v-0.2q0.3 0 0.4 0 0.1-0.1 0.1-0.2 0-0.1 0-0.2 0-0.1-0.1-0.2l-0.6-1.3h-4l-0.5 1.2q-0.1 0.2-0.2 0.3 0 0.1 0 0.2 0 0.1 0.1 0.1 0 0.1 0.3 0.1v0.2h-1.8v-0.2q0.3 0 0.4-0.1 0.1-0.2 0.2-0.6l2.3-5.3q0.2-0.2 0.2-0.3 0.1-0.1 0.1-0.2 0-0.1-0.1-0.2-0.1 0-0.3-0.1v-0.1zm-2.9 4.1h3.1l-1.6-3.4z"/><path fill-rule="evenodd" class="e" d="m238.5 93.6q1.7 0 2.7 0.9 0.9 0.9 0.9 2.6 0 1.7-0.9 2.7-1 0.9-2.7 0.9h-3.9v-0.2q0.2 0 0.3-0.1 0.1-0.1 0.1-0.3v-5.9q0-0.3-0.1-0.3-0.1-0.1-0.3-0.1v-0.2zm-0.2 6.2q1.3 0 2-0.7 0.7-0.7 0.7-2 0-1.2-0.7-1.9-0.7-0.7-2-0.7h-2.4v5.3z"/><path class="e" d="m251.7 93.2v1.7h-0.2q0-0.2-0.1-0.3-0.1-0.1-0.3-0.1h-5.1v2.1h3.6q0.2 0 0.3-0.1 0.1-0.1 0.1-0.3h0.2v1.7h-0.2q0-0.2-0.1-0.3-0.1-0.1-0.3-0.1h-3.6v2.3h5.2q0.3 0 0.4-0.1 0.1-0.1 0.1-0.3h0.2v1.7h-0.2q0-0.2-0.1-0.3-0.1-0.1-0.4-0.1h-6.7v-0.2q0.3 0 0.4-0.1 0-0.1 0-0.3v-5.9q0-0.3-0.1-0.3 0-0.1-0.3-0.1v-0.2h6.6q0.2 0 0.3-0.1 0.1-0.1 0.1-0.3z"/><path class="e" d="m253.3 93.2h0.2q0 0.2 0.1 0.3 0.1 0.1 0.3 0.1h6.1q0.2 0 0.3-0.1 0.1-0.1 0.1-0.3h0.2v1.7h-0.2q0-0.2-0.1-0.3-0.1-0.1-0.3-0.1h-2.5v5.6q0 0.2 0.1 0.3 0.1 0.1 0.3 0.1v0.2h-1.9v-0.2q0.3 0 0.4-0.1 0-0.1 0-0.3v-5.6h-2.5q-0.2 0-0.3 0.1-0.1 0.1-0.1 0.3h-0.2z"/><path fill-rule="evenodd" class="e" d="m266.7 93.6v0.2q-0.2 0-0.3 0-0.1 0.1-0.1 0.2 0 0 0.1 0.1 0 0.1 0 0.2l2.8 5.8q0.1 0.2 0.2 0.3 0.1 0.1 0.3 0.1v0.2h-2v-0.2q0.2 0 0.3 0 0.1-0.1 0.2-0.2 0-0.1-0.1-0.2 0-0.1-0.1-0.2l-0.6-1.3h-4l-0.5 1.2q-0.1 0.2-0.2 0.3 0 0.1 0 0.2 0 0.1 0.1 0.1 0.1 0.1 0.3 0.1v0.2h-1.8v-0.2q0.3 0 0.4-0.1 0.1-0.2 0.2-0.6l2.4-5.3q0.1-0.2 0.1-0.3 0.1-0.1 0.1-0.2 0-0.1-0.1-0.2-0.1 0-0.3-0.1v-0.1zm-2.9 4.1h3.2l-1.7-3.4z"/><path class="e" d="m273.3 93.6v0.2q-0.2 0-0.3 0.1-0.1 0-0.1 0.3v5.6h5.1q0.2 0 0.3-0.1 0.1-0.1 0.1-0.4h0.2v1.8h-0.2q0-0.3-0.1-0.3-0.1-0.1-0.3-0.1h-6.5v-0.2q0.3 0 0.4-0.1 0-0.1 0-0.3v-5.9q0-0.3 0-0.3-0.1-0.1-0.4-0.1v-0.2z"/><path class="e" d="m282.4 93.6v0.2q-0.3 0-0.4 0.1 0 0 0 0.3v2.3h4.9v-2.3q-0.1-0.3-0.1-0.3-0.1-0.1-0.3-0.1v-0.2h1.8v0.2q-0.3 0-0.4 0.1 0 0 0 0.3v5.9q0 0.2 0 0.3 0.1 0.1 0.4 0.1v0.2h-1.8v-0.2q0.2 0 0.3-0.1 0-0.1 0.1-0.3v-2.7h-4.9v2.7q0 0.2 0 0.3 0.1 0.1 0.4 0.1v0.2h-1.8v-0.2q0.2 0 0.3-0.1 0.1-0.1 0.1-0.3v-5.9q0-0.3-0.1-0.3-0.1-0.1-0.3-0.1v-0.2z"/><path class="e" d="m298.4 93.2v1.7h-0.1q0-0.2-0.1-0.3-0.1-0.1-0.4-0.1h-5v2.1h3.5q0.3 0 0.3-0.1 0.1-0.1 0.1-0.3h0.2v1.7h-0.2q0-0.2-0.1-0.3 0-0.1-0.3-0.1h-3.5v2.3h5.2q0.3 0 0.3-0.1 0.1-0.1 0.1-0.3h0.2v1.7h-0.2q0-0.2-0.1-0.3 0-0.1-0.3-0.1h-6.7v-0.2q0.3 0 0.3-0.1 0.1-0.1 0.1-0.3v-5.9q0-0.3-0.1-0.3-0.1-0.1-0.3-0.1v-0.2h6.5q0.3 0 0.4-0.1 0.1-0.1 0.1-0.3z"/></svg>